<svg xmlns="http://www.w3.org/2000/svg" viewBox="0 0 30 30">    <path d="M 14 6 A 1 1 0 0 0 13.408203 6.1953125 A 1 1 0 0 0 13.378906 6.2167969 L 2.4609375 14.15625 A 1 1 0 0 1 2.4589844 14.158203 L 2.4433594 14.169922 A 1 1 0 0 0 2 15 A 1 1 0 0 0 2.4492188 15.833984 L 13.40625 23.804688 A 1 1 0 0 0 14 24 A 1 1 0 0 0 15 23 A 1 1 0 0 0 15 22.996094 L 15 16.234375 L 25.40625 23.804688 A 1 1 0 0 0 26 24 A 1 1 0 0 0 27 23 A 1 1 0 0 0 27 22.996094 L 27 15 L 27 7.0039062 A 1 1 0 0 0 27 7 A 1 1 0 0 0 26 6 A 1 1 0 0 0 25.40625 6.1953125 A 1 1 0 0 0 25.378906 6.2167969 L 15 13.763672 L 15 7.0039062 A 1 1 0 0 0 15 7 A 1 1 0 0 0 14 6 z"></path></svg>